Coordinates
version=1
nRows=4
nColumns=40
inDegrees=yes

Units are S.I. units (second, meters, Newtons, ...)
If the header above contains a line with 'inDegrees', this indicates whether rotational values are in degrees (yes) or radians (no).

endheader
time	pelvis_tilt	pelvis_list	pelvis_rotation	pelvis_tx	pelvis_ty	pelvis_tz	hip_flexion_r	hip_adduction_r	hip_rotation_r	knee_angle_r	knee_angle_r_beta	ankle_angle_r	subtalar_angle_r	mtp_angle_r	hip_flexion_l	hip_adduction_l	hip_rotation_l	knee_angle_l	knee_angle_l_beta	ankle_angle_l	subtalar_angle_l	mtp_angle_l	lumbar_extension	lumbar_bending	lumbar_rotation	arm_flex_r	arm_add_r	arm_rot_r	elbow_flex_r	pro_sup_r	wrist_flex_r	wrist_dev_r	arm_flex_l	arm_add_l	arm_rot_l	elbow_flex_l	pro_sup_l	wrist_flex_l	wrist_dev_l
      7.70000000000000017764	      5.48550393303977301684	     -3.96920720039223340336	   -169.24691126555276809995	      0.31159609078014277594	      0.78841215575114043101	     -0.59789097066618646092	     50.50287901511617150163	    -22.82297496830661387435	     -4.76984891089811924303	     62.97659683611686176619	      1.09914896649128301931	     20.08730987355817276807	      0.00000000000000000000	      0.00000000000000000000	     51.80334576258731971166	     -3.22426908928147026856	     -3.17988875816539362518	     61.56880304123558289575	      1.07457832958145904634	     16.06623594504861429755	      0.00000000000000000000	      0.00000000000000000000	    -60.41537083136291386154	      7.21762203212256192586	     -8.64373007534534387730	      0.00000000000000000000	    -12.52032893116653511356	      0.00000000000000000000	     75.69566998182972383802	     44.94271189126157395322	      0.00000000000000000000	      0.00000000000000000000	      0.00000000000000000000	    -12.52032893116653511356	      0.00000000000000000000	     75.69566998182972383802	     44.94271189126157395322	      0.00000000000000000000	      0.00000000000000000000
      7.70500000000000007105	      5.54906861031980991328	     -3.91162134878295386642	   -169.27026632330193933740	      0.31121014673842167797	      0.78999784049529675478	     -0.59776049990531820999	     50.27104465323006365907	    -22.76944162077745303918	     -4.97060976470620641265	     62.53992653139165724951	      1.09152763192814128423	     19.89797695983889980198	      0.00000000000000000000	      0.00000000000000000000	     51.61961790852844700339	     -3.25922638678649034816	     -3.20646746938683779860	     61.17567449215366792714	      1.06771694201639144595	     15.92455946924855147984	      0.00000000000000000000	      0.00000000000000000000	    -60.35972222192621927661	      7.23309860695472917058	     -8.58229279169690606466	      0.00000000000000000000	    -12.53921707608118651933	      0.00000000000000000000	     75.68566859659516410375	     44.94475173010938817697	      0.00000000000000000000	      0.00000000000000000000	      0.00000000000000000000	    -12.53921707608118651933	      0.00000000000000000000	     75.68566859659516410375	     44.94475173010938817697	      0.00000000000000000000	      0.00000000000000000000
      7.70999999999999996447	      5.56762127356561720148	     -3.88086509926174016982	   -169.38870288673550135172	      0.31083126200063321276	      0.79169895520465738414	     -0.59775114315625177408	     50.02190161078847552290	    -22.66663629537870150443	     -5.11588560435186057163	     62.09067165517144815112	      1.08368665515745910000	     19.68180448038906149577	      0.00000000000000000000	      0.00000000000000000000	     51.35917544527783462627	     -3.36673534510887639826	     -3.33583649772014911861	     60.76637927755918866524	      1.06057339290906105234	     15.77039528092564957262	      0.00000000000000000000	      0.00000000000000000000	    -60.36481288107147236133	      7.15247453997557158800	     -8.48017954855992073249	      0.00000000000000000000	    -12.55649559622463584674	      0.00000000000000000000	     75.67657939034300795811	     44.94656735910507450171	      0.00000000000000000000	      0.00000000000000000000	      0.00000000000000000000	    -12.55649559622463584674	      0.00000000000000000000	     75.67657939034300795811	     44.94656735910507450171	      0.00000000000000000000	      0.00000000000000000000
      7.71499999999999985789	      5.78944108279165625675	     -3.74273009764298780766	   -169.35040570656195768606	      0.31050486884403677434	      0.79249699465017076072	     -0.59739408488764678129	     50.08737249411099412555	    -22.65601403369151611855	     -5.34151457255807393665	     61.87284051547565155715	      1.07988478455639569376	     19.45277325250780009469	      0.00000000000000000000	      0.00000000000000000000	     51.53603982645675074536	     -3.38948846269150072530	     -3.23837129595132244830	     60.64000564478281773972	      1.05836775692940721072	     15.57779065840404442156	      0.00000000000000000000	      0.00000000000000000000	    -60.12400937519904431383	      7.21872799108213136776	     -8.41888853189457364579	      0.00000000000000000000	    -12.56932967306398474250	      0.00000000000000000000	     75.66997804341816902252	     44.94779032818174613340	      0.00000000000000000000	      0.00000000000000000000	      0.00000000000000000000	    -12.56932967306398474250	      0.00000000000000000000	     75.66997804341816902252	     44.94779032818174613340	      0.00000000000000000000	      0.00000000000000000000
